<svg id="Camada_1" data-name="Camada 1" xmlns="http://www.w3.org/2000/svg" viewBox="0 0 841.89 240"><defs><style>.cls-1{fill:#fff;}</style></defs><title>UNIREDE_NEGATIVO</title><path class="cls-1" d="M306.41,109.22c0,12.47-8.06,19.92-21.57,19.92-13.7,0-21.57-7.27-21.57-19.92V47.91H243.44v60.77c0,23.16,15.09,36.44,41.4,36.44s41.41-13.53,41.41-37.12V47.91H306.41Z"/><path class="cls-1" d="M380.55,70.62c-9.36,0-17.4,3.28-23,9.28V72H338.53v71.79h19.21V101.65c0-9.81,7.42-16.4,18.45-16.4,9.16,0,13.62,4.62,13.62,14.1v44.41H409V97.19C409,81.05,397.85,70.62,380.55,70.62Z"/><rect class="cls-1" x="422.1" y="47.91" width="19.21" height="16.52"/><rect class="cls-1" x="422.1" y="71.97" width="19.21" height="71.79"/><path class="cls-1" d="M540,75.71c0-16.63-14.57-27.8-36.26-27.8H454.84v96h19.68V103.63H500l23.07,40.27h22.13l-26.06-42.71C532.6,97,540,88,540,75.71ZM474.68,63.09h28.11c11.39,0,17.67,4.67,17.67,13.16,0,8.09-5.44,12.5-16.12,12.88H474.68Z"/><path class="cls-1" d="M580.57,70.62c-26.44,0-38.29,18.91-38.29,37.65,0,22,16.21,36.85,40.33,36.85,12.34,0,22.34-3.56,31.43-11.18l1.17-1-12.67-9.67-1,.77a28.87,28.87,0,0,1-18.64,6.29c-12.65,0-19.8-5.76-21.26-17.12H616l.29-1a23.79,23.79,0,0,0,.5-5.59C616.83,90,607.34,70.62,580.57,70.62Zm-.31,14.63c13.6,0,16.72,9.26,17.39,14.57H561.71C563.44,90.41,570,85.25,580.26,85.25Z"/><path class="cls-1" d="M685.54,79.06c-4.92-4.27-12.81-8.44-24.84-8.44-22.61,0-36.11,13.92-36.11,37.25,0,23,13.89,37.38,36.26,37.38,10.11,0,18.86-3,25-8.54v7h18.91V47.91H685.54Zm-20,51.43c-14.31,0-21.57-7.66-21.57-22.76,0-10.13,3.74-22.21,21.57-22.21,12.73,0,20.63,8.51,20.63,22.21C686.16,122,678.45,130.49,665.53,130.49Z"/><path class="cls-1" d="M748.93,70.62c-26.45,0-38.29,18.91-38.29,37.65,0,22,16.2,36.85,40.32,36.85,12.35,0,22.34-3.56,31.44-11.18l1.16-1-12.66-9.67-1,.77a28.91,28.91,0,0,1-18.64,6.29c-12.66,0-19.81-5.76-21.27-17.12h54.39l.29-1a23.78,23.78,0,0,0,.51-5.59C785.19,90,775.69,70.62,748.93,70.62Zm-.32,14.63c13.61,0,16.72,9.26,17.39,14.57H730.07C731.79,90.41,738.32,85.25,748.61,85.25Z"/><path class="cls-1" d="M185.16,132.61a15.31,15.31,0,1,0,15.31,15.3A15.33,15.33,0,0,0,185.16,132.61Z"/><path class="cls-1" d="M71.18,58.78a15.31,15.31,0,1,0-15.3-15.3A15.32,15.32,0,0,0,71.18,58.78Z"/><path class="cls-1" d="M156.68,46.18c-22.36,0-40.49,19.09-40.49,42.62V102h0a16.49,16.49,0,0,1-33,0V71.17h-24V102c0,23.54,18.12,42.62,40.49,42.62s40.49-19.08,40.49-42.62V88.8h0a16.51,16.51,0,0,1,33,0h0v30.87h24V88.8C197.18,65.27,179.05,46.18,156.68,46.18Z"/><path class="cls-1" d="M251.36,176h5.07l7.95,24.41h-4.55l-1.91-6.6h-8.21l-1.9,6.6h-4.4Zm-.64,14.41H257l-.85-3c-.79-2.58-1.5-5.38-2.21-8.07h-.15c-.67,2.73-1.38,5.49-2.16,8.07Z"/><path class="cls-1" d="M265.87,198.35l2-2.76a8.14,8.14,0,0,0,5.07,2c2,0,2.91-.93,2.91-2.2,0-1.53-2-2.2-3.91-2.95-2.43-.89-5.16-2.27-5.16-5.33,0-3.21,2.58-5.49,6.68-5.49a9.88,9.88,0,0,1,6.09,2.2l-2,2.61a6.82,6.82,0,0,0-4-1.56c-1.83,0-2.69.86-2.69,2,0,1.46,1.83,2,3.81,2.73,2.5.93,5.26,2.12,5.26,5.56,0,3.13-2.5,5.67-7.13,5.67A11.57,11.57,0,0,1,265.87,198.35Z"/><path class="cls-1" d="M282,198.35l2-2.76a8.14,8.14,0,0,0,5.08,2c2,0,2.91-.93,2.91-2.2,0-1.53-2-2.2-3.92-2.95-2.43-.89-5.15-2.27-5.15-5.33,0-3.21,2.57-5.49,6.68-5.49a9.85,9.85,0,0,1,6.08,2.2l-2,2.61a6.8,6.8,0,0,0-4-1.56c-1.83,0-2.68.86-2.68,2,0,1.46,1.83,2,3.8,2.73,2.5.93,5.27,2.12,5.27,5.56,0,3.13-2.5,5.67-7.13,5.67A11.57,11.57,0,0,1,282,198.35Z"/><path class="cls-1" d="M298.67,191.3c0-6.12,4.15-9.63,8.7-9.63s8.73,3.51,8.73,9.63-4.14,9.59-8.73,9.59S298.67,197.38,298.67,191.3Zm13,0c0-3.7-1.64-6.12-4.33-6.12s-4.29,2.42-4.29,6.12,1.6,6.08,4.29,6.08S311.7,195,311.7,191.3Z"/><path class="cls-1" d="M319.16,191.3c0-6.12,4.29-9.63,9.18-9.63a7.92,7.92,0,0,1,5.38,2.05l-2.09,2.8a4.48,4.48,0,0,0-3.06-1.34c-2.95,0-5,2.42-5,6.12s2,6.08,4.89,6.08a6.13,6.13,0,0,0,3.76-1.56l1.76,2.83a9.17,9.17,0,0,1-6,2.24C323,200.89,319.16,197.38,319.16,191.3Z"/><path class="cls-1" d="M337.11,176.48a2.66,2.66,0,1,1,2.65,2.43A2.47,2.47,0,0,1,337.11,176.48Zm.49,5.64h4.29v18.32H337.6Z"/><path class="cls-1" d="M346.4,195.52c0-3.92,3.25-6,10.79-6.8-.07-1.94-.86-3.58-3.36-3.58a10.44,10.44,0,0,0-5.15,1.79l-1.57-2.87a14.35,14.35,0,0,1,7.54-2.39c4.56,0,6.83,2.8,6.83,7.91v10.86h-3.54l-.3-2h-.15a8.92,8.92,0,0,1-5.67,2.46A5.13,5.13,0,0,1,346.4,195.52Zm10.79,0v-4.11c-5,.64-6.64,1.94-6.64,3.77,0,1.64,1.12,2.35,2.65,2.35S355.81,196.79,357.19,195.52Z"/><path class="cls-1" d="M370.36,207.27c3-.18,4-.67,4-1.75,0-.86-.67-1.38-2.87-1.68l1.49-3c-4.33-.6-7.5-4-7.5-9.52,0-6.12,4.29-9.63,9.18-9.63a7.91,7.91,0,0,1,5.37,2.05l-2.09,2.8a4.46,4.46,0,0,0-3.06-1.34c-2.95,0-5,2.42-5,6.12s2,6.08,4.89,6.08a6.16,6.16,0,0,0,3.77-1.56l1.75,2.83a8.92,8.92,0,0,1-4.7,2.13l-.86,2c1.79.45,2.8,1.19,2.8,2.72,0,2.35-2.46,3.47-6.75,3.66Z"/><path class="cls-1" d="M382.53,195.52c0-3.92,3.25-6,10.78-6.8-.07-1.94-.85-3.58-3.35-3.58a10.47,10.47,0,0,0-5.16,1.79l-1.56-2.87a14.32,14.32,0,0,1,7.54-2.39c4.55,0,6.83,2.8,6.83,7.91v10.86h-3.55l-.3-2h-.15a8.92,8.92,0,0,1-5.67,2.46A5.12,5.12,0,0,1,382.53,195.52Zm5.78-19.3c-.93,0-1.38.9-1.53,2.5l-2.76-.15c.11-3.39,1.49-5.37,4.22-5.37,2.5,0,3.62,2.76,5.11,2.76.9,0,1.35-.93,1.49-2.5l2.77.15c-.12,3.36-1.5,5.37-4.22,5.37C390.89,179,389.77,176.22,388.31,176.22Zm5,19.3v-4.11c-5,.64-6.64,1.94-6.64,3.77,0,1.64,1.12,2.35,2.65,2.35S391.93,196.79,393.31,195.52Z"/><path class="cls-1" d="M401.56,191.3c0-6.12,4.14-9.63,8.7-9.63s8.73,3.51,8.73,9.63-4.14,9.59-8.73,9.59S401.56,197.38,401.56,191.3Zm13,0c0-3.7-1.65-6.12-4.33-6.12s-4.3,2.42-4.3,6.12,1.61,6.08,4.3,6.08S414.59,195,414.59,191.3Z"/><path class="cls-1" d="M431,189.73V176h4.33v14c0,5.3,2,7.05,4.92,7.05s5.08-1.75,5.08-7.05V176h4.14v13.7c0,8-3.54,11.16-9.22,11.16S431,197.76,431,189.73Z"/><path class="cls-1" d="M455.15,182.12h3.55l.29,2.46h.15c1.65-1.6,3.51-2.91,6-2.91,3.92,0,5.64,2.65,5.64,7.28v11.49H466.5V189.51c0-3-.86-4.14-2.88-4.14-1.6,0-2.65.78-4.18,2.27v12.8h-4.29Z"/><path class="cls-1" d="M475.56,176.48a2.66,2.66,0,1,1,2.65,2.43A2.47,2.47,0,0,1,475.56,176.48Zm.49,5.64h4.29v18.32h-4.29Z"/><path class="cls-1" d="M483.55,182.12h4.37l2.91,9.51c.48,1.8,1,3.66,1.53,5.53h.15c.52-1.87,1-3.73,1.56-5.53l2.91-9.51h4.15l-6.24,18.32h-5Z"/><path class="cls-1" d="M502.88,191.3c0-6,4.14-9.63,8.43-9.63,5,0,7.58,3.58,7.58,8.7a10.23,10.23,0,0,1-.18,2.09H507.06c.37,3.24,2.46,5.11,5.41,5.11a7.75,7.75,0,0,0,4.26-1.34l1.45,2.68a11.51,11.51,0,0,1-6.27,2C506.84,200.89,502.88,197.35,502.88,191.3Zm12.28-1.76c0-2.83-1.23-4.55-3.73-4.55-2.17,0-4,1.61-4.41,4.55Z"/><path class="cls-1" d="M523,182.12h3.55l.3,3.25H527c1.3-2.39,3.24-3.7,5.19-3.7a4.69,4.69,0,0,1,2.09.37l-.75,3.74a5.92,5.92,0,0,0-1.9-.3c-1.46,0-3.21,1-4.33,3.77v11.19H523Z"/><path class="cls-1" d="M534.86,198.35l2-2.76a8.14,8.14,0,0,0,5.07,2c2,0,2.91-.93,2.91-2.2,0-1.53-2-2.2-3.91-2.95-2.43-.89-5.16-2.27-5.16-5.33,0-3.21,2.58-5.49,6.68-5.49a9.88,9.88,0,0,1,6.09,2.2l-2,2.61a6.82,6.82,0,0,0-4-1.56c-1.83,0-2.69.86-2.69,2,0,1.46,1.83,2,3.81,2.73,2.5.93,5.26,2.12,5.26,5.56,0,3.13-2.5,5.67-7.13,5.67A11.57,11.57,0,0,1,534.86,198.35Z"/><path class="cls-1" d="M552.29,176.48a2.66,2.66,0,1,1,2.65,2.43A2.47,2.47,0,0,1,552.29,176.48Zm.49,5.64h4.29v18.32h-4.29Z"/><path class="cls-1" d="M561.43,191.3c0-6,3.77-9.63,7.77-9.63a6.73,6.73,0,0,1,4.81,2l-.15-2.95v-6.65h4.29v26.35h-3.54l-.3-2h-.15a7.63,7.63,0,0,1-5.19,2.43C564.38,200.89,561.43,197.35,561.43,191.3Zm12.43,4v-8.54a5.46,5.46,0,0,0-3.73-1.53c-2.35,0-4.26,2.2-4.26,6s1.5,6.09,4.15,6.09A5,5,0,0,0,573.86,195.29Z"/><path class="cls-1" d="M582.63,195.52c0-3.92,3.25-6,10.79-6.8-.08-1.94-.86-3.58-3.36-3.58a10.4,10.4,0,0,0-5.15,1.79l-1.57-2.87a14.32,14.32,0,0,1,7.54-2.39c4.55,0,6.83,2.8,6.83,7.91v10.86h-3.55l-.3-2h-.15a8.9,8.9,0,0,1-5.67,2.46A5.12,5.12,0,0,1,582.63,195.52Zm10.79,0v-4.11c-5,.64-6.65,1.94-6.65,3.77,0,1.64,1.12,2.35,2.65,2.35S592,196.79,593.42,195.52Z"/><path class="cls-1" d="M601.73,191.3c0-6,3.78-9.63,7.77-9.63a6.73,6.73,0,0,1,4.81,2l-.15-2.95v-6.65h4.3v26.35h-3.55l-.3-2h-.15a7.6,7.6,0,0,1-5.18,2.43C604.68,200.89,601.73,197.35,601.73,191.3Zm12.43,4v-8.54a5.46,5.46,0,0,0-3.73-1.53c-2.35,0-4.25,2.2-4.25,6s1.49,6.09,4.14,6.09A4.94,4.94,0,0,0,614.16,195.29Z"/><path class="cls-1" d="M622.71,191.3c0-6,4.14-9.63,8.43-9.63,5,0,7.58,3.58,7.58,8.7a10.12,10.12,0,0,1-.19,2.09H626.89c.37,3.24,2.46,5.11,5.41,5.11a7.69,7.69,0,0,0,4.25-1.34l1.46,2.68a11.54,11.54,0,0,1-6.27,2C626.66,200.89,622.71,197.35,622.71,191.3ZM635,189.54c0-2.83-1.23-4.55-3.73-4.55-2.17,0-4,1.61-4.41,4.55Z"/><path class="cls-1" d="M649.09,191.3c0-6,4.14-9.63,8.44-9.63,5,0,7.57,3.58,7.57,8.7a10.23,10.23,0,0,1-.18,2.09H653.27c.38,3.24,2.47,5.11,5.41,5.11a7.72,7.72,0,0,0,4.26-1.34l1.45,2.68a11.51,11.51,0,0,1-6.26,2C653.05,200.89,649.09,197.35,649.09,191.3Zm12.28-1.76c0-2.83-1.23-4.55-3.73-4.55-2.17,0-4,1.61-4.41,4.55Z"/><path class="cls-1" d="M669.21,182.12h3.54l.3,2.5h.15c1.53-1.64,3.32-3,5.6-3a5,5,0,0,1,5.08,3.28c1.75-1.86,3.58-3.28,5.89-3.28,3.88,0,5.68,2.65,5.68,7.28v11.49h-4.33V189.51c0-3-.9-4.14-2.8-4.14-1.16,0-2.43.74-3.85,2.27v12.8h-4.29V189.51c0-3-.9-4.14-2.84-4.14-1.12,0-2.42.74-3.84,2.27v12.8h-4.29Z"/><path class="cls-1" d="M708.5,176h8.25c5.08,0,9,1.8,9,7.24a6.82,6.82,0,0,1-4.85,7l5.82,10.19h-4.85l-5.27-9.55h-3.73v9.55H708.5Zm7.8,11.43c3.33,0,5.15-1.42,5.15-4.19s-1.82-3.77-5.15-3.77h-3.47v8Z"/><path class="cls-1" d="M728.65,191.3c0-6,4.15-9.63,8.44-9.63,5,0,7.58,3.58,7.58,8.7a10.12,10.12,0,0,1-.19,2.09H732.83c.38,3.24,2.47,5.11,5.42,5.11a7.71,7.71,0,0,0,4.25-1.34l1.46,2.68a11.57,11.57,0,0,1-6.27,2C732.61,200.89,728.65,197.35,728.65,191.3Zm12.28-1.76c0-2.83-1.23-4.55-3.73-4.55-2.16,0-4,1.61-4.4,4.55Z"/><path class="cls-1" d="M747.65,191.3c0-6,3.77-9.63,7.76-9.63a6.75,6.75,0,0,1,4.82,2l-.15-2.95v-6.65h4.29v26.35h-3.55l-.29-2h-.15a7.63,7.63,0,0,1-5.19,2.43C750.6,200.89,747.65,197.35,747.65,191.3Zm12.43,4v-8.54a5.46,5.46,0,0,0-3.73-1.53c-2.36,0-4.26,2.2-4.26,6s1.49,6.09,4.14,6.09A5,5,0,0,0,760.08,195.29Z"/><path class="cls-1" d="M768.62,191.3c0-6,4.15-9.63,8.44-9.63,5,0,7.57,3.58,7.57,8.7a10.23,10.23,0,0,1-.18,2.09H772.8c.38,3.24,2.47,5.11,5.41,5.11a7.72,7.72,0,0,0,4.26-1.34l1.46,2.68a11.57,11.57,0,0,1-6.28,2C772.58,200.89,768.62,197.35,768.62,191.3Zm12.28-1.76c0-2.83-1.23-4.55-3.73-4.55-2.17,0-4,1.61-4.4,4.55Z"/></svg>