<svg id="Camada_1" data-name="Camada 1" xmlns="http://www.w3.org/2000/svg" viewBox="0 0 266 260"><defs><style>.cls-1{fill:#028c5e;opacity:0.47;}</style></defs><title>simbolo</title><path class="cls-1" d="M72.34,218c21,15.18,44.56,21.73,70.38,19.75,15.48-1.19,30.07-5.75,43.94-12.66,1.06-.53,2.11-1.08,3.17-1.62a1.5,1.5,0,0,0-1.24-.34c-11.2,2.16-22.49,2.26-33.81,1.34a138.34,138.34,0,0,1-47.36-12.69,4.72,4.72,0,0,1-2.13-2.49,125,125,0,0,1-6.57-27.55c-.55-4.27-.72-8.57-1.08-13.21.76.39,1.15.56,1.5.78a165.69,165.69,0,0,0,92,25A127,127,0,0,0,222,190.12a9.23,9.23,0,0,0,3.95-1.74c5.15-5,7.92-11.51,11-18.08a13.51,13.51,0,0,0-1.61,0c-4.8.65-9.58,1.5-14.4,1.94a195.19,195.19,0,0,1-55.06-2.53c-23.78-4.61-44.61-15.17-63-30.74a2.14,2.14,0,0,1-.76-2.83c3-7.27,5.77-14.59,8.77-21.83,1.16-2.79,2.68-5.44,4.13-8.34,10,9.88,21.38,17.14,33.63,23,28.36,13.67,57.87,17.87,88.68,10.37,8.36-2,7-.1,8-8.85.48-4.22.06-8.54.05-13-45.3,10.26-83.64-1.07-115.88-33.7,6.13-7.51,12.93-14,21.34-18.72,1.34-.75,2-.53,3.19.43,3.89,3.24,7.69,6.68,12,9.29,15.86,9.67,32.93,15.8,51.72,16.12,6.58.11,13.16-.17,20-.28a10.93,10.93,0,0,0-.28-2.23c-2-5-4-9.89-6-14.84-.56-1.36-1.55-1.66-2.95-1.69a89.81,89.81,0,0,1-50.79-16.39c-12.77-8.88-23.29-19.78-29.9-34-1.05-2.27-2.11-3.5-4.72-3.42-4.9.13-9.81,0-15.08,0A119.34,119.34,0,0,0,140.5,48.45a90.8,90.8,0,0,0-25.44,18.39c-3.1-6.41-6.54-12.29-8.83-18.58-2.6-7.13-4.26-14.61-6.15-22-.5-2-1.24-2.37-3-1.65-4.48,1.84-9,3.53-13.47,5.43-3.77,1.61-3.74,1.7-3.17,5.85a122.28,122.28,0,0,0,18,49.47,3.21,3.21,0,0,1,0,3.76c-3.32,6.38-6.58,12.79-9.64,19.29-1.72,3.63-3,7.46-4.62,11.52a134.07,134.07,0,0,1-19.41-30C59.85,79.12,55.7,68,51.12,56.8c-4.54,5.41-8.89,10.92-10.87,17.89-.88,3.09,3,19.16,4.24,23.22,5.71,19.52,16.39,36.15,30.2,50.86A7.22,7.22,0,0,1,76.77,155,115,115,0,0,0,78,186.41c.49,2.75,1,5.49,1.51,8.24-26.63-19.54-45-44.58-53.2-77.33a21.58,21.58,0,0,0-.63,2.43,90.28,90.28,0,0,0,.95,27.65C32.56,176.93,48.06,200.4,72.34,218Z"/><path class="cls-1" d="M206.61,47.06c-3.78-11.43-26-26.64-36.87-25.21C172.83,28.38,200.68,47.44,206.61,47.06Z"/></svg>