<svg id="Camada_1" data-name="Camada 1" xmlns="http://www.w3.org/2000/svg" viewBox="0 0 1042 316"><defs><style>.cls-1{fill:#fff;}</style></defs><title>marca_revista_em_rede</title><path class="cls-1" d="M691.42,278l.36.43-.49.26.49-.26Z"/><path class="cls-1" d="M81.34,252c21,15.18,44.56,21.73,70.38,19.75,15.48-1.19,30.07-5.75,43.94-12.66,1.06-.53,2.11-1.08,3.17-1.62a1.5,1.5,0,0,0-1.24-.34c-11.2,2.16-22.49,2.26-33.81,1.34a138.34,138.34,0,0,1-47.36-12.69,4.72,4.72,0,0,1-2.13-2.49,125,125,0,0,1-6.57-27.55c-.55-4.27-.72-8.57-1.08-13.21.76.39,1.15.56,1.5.78a165.69,165.69,0,0,0,92,25A127,127,0,0,0,231,224.12a9.23,9.23,0,0,0,3.95-1.74c5.15-5,7.92-11.51,11-18.08a13.51,13.51,0,0,0-1.61,0c-4.8.65-9.58,1.5-14.4,1.94a195.19,195.19,0,0,1-55.06-2.53c-23.78-4.61-44.61-15.17-63-30.74a2.14,2.14,0,0,1-.76-2.83c3-7.27,5.77-14.59,8.77-21.83,1.16-2.79,2.68-5.44,4.13-8.34,10,9.88,21.38,17.14,33.63,23,28.36,13.67,57.87,17.87,88.68,10.37,8.36-2,7-.1,8-8.85.48-4.22.06-8.54.05-13-45.3,10.26-83.64-1.07-115.88-33.7,6.13-7.51,12.93-14,21.34-18.72,1.34-.75,2-.53,3.19.43,3.89,3.24,7.69,6.68,12,9.29,15.86,9.67,32.93,15.8,51.72,16.12,6.58.11,13.16-.17,20-.28a10.93,10.93,0,0,0-.28-2.23c-2-5-4-9.89-6-14.84-.56-1.36-1.55-1.66-2.95-1.69a89.81,89.81,0,0,1-50.79-16.39c-12.77-8.88-23.29-19.78-29.9-34-1.05-2.27-2.11-3.5-4.72-3.42-4.9.13-9.81,0-15.08,0A119.34,119.34,0,0,0,149.5,82.45a90.8,90.8,0,0,0-25.44,18.39c-3.1-6.41-6.54-12.29-8.83-18.58-2.6-7.13-4.26-14.61-6.15-22-.5-2-1.24-2.37-3-1.65-4.48,1.84-9,3.53-13.47,5.43-3.77,1.61-3.74,1.7-3.17,5.85a122.28,122.28,0,0,0,18,49.47,3.21,3.21,0,0,1,0,3.76c-3.32,6.38-6.58,12.79-9.64,19.29-1.72,3.63-3,7.46-4.62,11.52a134.07,134.07,0,0,1-19.41-30C68.85,113.12,64.7,102,60.12,90.8c-4.54,5.41-8.89,10.92-10.87,17.89-.88,3.09,3,19.16,4.24,23.22,5.71,19.52,16.39,36.15,30.2,50.86A7.22,7.22,0,0,1,85.77,189,115,115,0,0,0,87,220.41c.49,2.75,1,5.49,1.51,8.24-26.63-19.54-45-44.58-53.2-77.33a21.58,21.58,0,0,0-.63,2.43,90.28,90.28,0,0,0,.95,27.65C41.56,210.93,57.06,234.4,81.34,252Z"/><path class="cls-1" d="M612.39,152.26c6.73,0,13.12,0,19.5,0,8-.05,16-.19,24-.19a2.22,2.22,0,0,1,1.55,1.27c1.2,3.22,2.26,6.51,3.37,9.77q6.24,18.33,12.51,36.64c.25.73.95,1.82,1.46,1.84,5,.14,10.1.08,15.46.08-.35-1.13-.59-2-.86-2.77q-8.45-25-16.87-50c-.36-1.07-.87-2,.59-3a33.77,33.77,0,0,0,13.4-18.61c4.4-14.54,4.73-29.35,1.91-44.21-1.65-8.71-5.38-16.47-12-22.58-7.92-7.31-17.6-9.65-28.05-9.65q-24.48,0-49,0c-.94,0-1.88.08-2.89.13v150.6h15.84Zm-.08-83.06c0-2.21.55-2.9,2.81-2.88,10.74.11,21.47,0,32.21.06,12.47.06,20.77,5.76,24.3,16.84a36.33,36.33,0,0,1,1.72,8.61c.61,9.61.91,19.25-2,28.63-3.23,10.54-10.92,16.2-22,16.22q-17.2,0-34.41,0c-.79,0-1.58-.07-2.53-.11,0-.95-.12-1.73-.12-2.52C612.36,112.43,612.4,90.81,612.31,69.2Z"/><path class="cls-1" d="M825.82,197.65a53.94,53.94,0,0,0,27.12,6.54c11.29-.35,22.55-1.53,33.84-2.23,2.24-.14,2.29-1.33,2.29-3q0-71.47,0-142.95c0-5.16,0-5.16-5.26-5.16H873.11V97.37a4.83,4.83,0,0,1-.8-.14c-12.57-6.26-25.69-6.9-39-3.33C819,97.72,810.05,108.32,809.59,123c-.51,16.66-.56,33.37.1,50C810.13,184,815.9,192.42,825.82,197.65Zm-.76-68.23c0-13.19,8.11-21.53,21.36-22.28a51.49,51.49,0,0,1,25,5,2.5,2.5,0,0,1,1.72,2.63q-.09,35.51-.05,71c0,.58-.07,1.15-.11,1.9-7.23,1.26-14.41,2.15-21.71,1.64-5.15-.35-10.23-1.11-15-3.33-7.35-3.45-11.25-9.12-11.23-17.38C825.09,155.59,825,142.5,825.06,129.42Z"/><path class="cls-1" d="M934.36,202.56c10.33,2.85,20.66,2.06,31-.27A65.49,65.49,0,0,0,983.91,195c.6-.35,1.39-1.47,1.23-1.86-1.71-4-3.6-8-5.48-12.06-3.12,1.41-5.82,2.77-8.61,3.86-8.85,3.48-17.89,5.8-27.51,4.16-8.57-1.47-13.63-6.83-14.34-15.4-.27-3.36,0-6.77-.21-10.14-.12-2.08.6-2.85,2.67-2.94,12.26-.55,24.52-1.19,36.77-1.81,6.9-.36,13.79-.77,20.69-1.09,1.42-.06,1.9-.58,1.88-2-.16-11,.21-22.08-.5-33.07-.85-13.25-8.17-23.87-21.45-28.47-8.53-3-17.25-3.1-26.1-1.73-17.42,2.68-29.63,16.41-29.74,33.8q-.15,24.37,0,48.76C913.28,188.66,921.21,198.93,934.36,202.56Zm-5.09-76.68c.57-10,7.2-17.23,17.11-19a29.52,29.52,0,0,1,15.2,1c8.4,2.91,12.88,9.27,13.19,19,.16,4.85,0,9.7.06,14.55,0,1.64-.67,2.18-2.2,2.25q-18.69.87-37.39,1.8c-1.9.09-3.8.23-6,.36a8.49,8.49,0,0,1-.24-1.43C929.1,138.22,928.93,132,929.27,125.88Z"/><path class="cls-1" d="M735.91,203.05c14.42,3.12,28.31.63,41.7-5.13,2.53-1.08,4.92-2.49,7.43-3.78l-6-12.95c-3.74,1.6-7.25,3.28-10.88,4.62-8.22,3-16.64,4.84-25.46,3.3-7.7-1.35-12.81-6-13.91-13.59-.64-4.4-.33-8.94-.31-13.42,0-.44,1-1.21,1.55-1.26,3.44-.31,6.89-.46,10.34-.64q19.26-.94,38.52-1.9c3.73-.18,7.45-.46,11.38-.71,0-1.29,0-2.38,0-3.47-.15-11,.36-22.09-.64-33-1.15-12.68-8.11-21.84-20.26-26.49C760.82,91.31,752,91,742.94,92.44c-18.15,2.87-29.81,15.36-30.34,33.68-.47,16.3-.42,32.64,0,49C713,190.13,721.26,199.88,735.91,203.05ZM729,123.81c1-9.31,7.76-15.45,17.1-17a29.15,29.15,0,0,1,14.77,1c8.21,2.89,12.71,8.82,13.23,17.42.36,5.92.07,11.88.07,18.24l-45.41,2.34c-.1-.18-.23-.31-.23-.44C728.62,138.16,728.2,130.91,729,123.81Z"/><path class="cls-1" d="M430.65,203.34c1.69,0,3.38,0,5.07,0,3.59-.06,3.48.57,3.49-3.41V113a7.6,7.6,0,0,1,.06-2.19,3.19,3.19,0,0,1,1.2-1.83c10.75-5.43,22.07-8.15,34.09-6.06,9.25,1.61,15.69,6.84,17.85,16.31a42.8,42.8,0,0,1,.92,9.39c.08,23.76,0,47.51.05,71.27,0,1.08.1,2.15.17,3.45h6.8c3,0,3,0,3-3q0-30.56,0-61.12c0-9.52.56-19.11-3.11-28.38,2.94-1.48,5.73-2.93,8.56-4.3a44.74,44.74,0,0,1,20.18-4.7c14.64.15,24.77,9.66,25,24.29.27,19.19.1,38.39.12,57.58,0,5.74.08,11.47,0,17.21,0,2,.63,2.63,2.54,2.47,1.54-.14,3.09,0,4.63,0,2.85,0,2.87,0,2.87-2.93q0-35.41,0-70.82a55.69,55.69,0,0,0-.66-9.22c-1.92-11.12-7.56-19.62-18.09-24.39-7.78-3.53-15.92-3.73-24.19-2.38-8.54,1.39-16.23,5-23.7,9.17-1.28.71-2,.6-3.22-.31-3.24-2.35-6.53-4.89-10.19-6.38-10.34-4.21-21-3.66-31.54-.63-4.69,1.34-9.2,3.32-13.91,5,.17-1.71.34-3.5.56-5.73H432c-2.86,0-2.86,0-2.86,2.87V200.46c0,.44,0,.89,0,1.32C429,202.93,429.52,203.37,430.65,203.34Z"/><path class="cls-1" d="M400.74,203.34c.44,0,1,.16,1.3,0,.6-.41,1.45-1,1.52-1.56.21-1.67-.05-3.39.11-5.06.2-2.11-.52-2.75-2.68-2.74q-27.8.12-55.59,0c-3.88,0-3.71.75-3.71-3.6q0-31.43,0-62.87c0-3.76,0-3.76,3.66-3.76,11.47,0,22.94,0,34.41,0,.82,0,2.12-.36,2.35-.91,1.17-2.81,2.06-5.74,3.19-9H344.62c-2.92,0-2.93,0-2.93-2.87q0-23,0-45.89c0-4.39-.18-3.65,3.65-3.65q28.13,0,56.25,0c1.9,0,2.72-.47,2.52-2.46a20.88,20.88,0,0,1,0-4.4c.24-2.16-.59-2.7-2.69-2.69q-33.65.11-67.29,0h-2.36V203.34h69Z"/><path class="cls-1" d="M215.61,81.06c-3.78-11.43-26-26.64-36.87-25.21C181.83,62.38,209.68,81.44,215.61,81.06Z"/><path class="cls-1" d="M330.55,240.5a56.1,56.1,0,0,1,9.6-.71c4.73,0,8,.71,10.3,2.55a8,8,0,0,1,3,6.67,8.43,8.43,0,0,1-5.62,7.8V257c2.22.9,3.45,3,4.25,5.91,1,3.64,1.94,7.8,2.55,9h-7.37a43.15,43.15,0,0,1-2.18-7.42c-.89-4-2.27-5.06-5.24-5.11h-2.13v12.53h-7.14Zm7.14,13.66h2.84c3.59,0,5.72-1.8,5.72-4.58s-2-4.4-5.3-4.4a13.74,13.74,0,0,0-3.26.24Z"/><path class="cls-1" d="M363.88,262.62c.23,3,3.16,4.4,6.52,4.4a19.08,19.08,0,0,0,6.38-1l1,4.86a21.75,21.75,0,0,1-8.37,1.47c-7.85,0-12.34-4.54-12.34-11.77,0-5.86,3.69-12.34,11.68-12.34,7.47,0,10.3,5.82,10.3,11.54a17.66,17.66,0,0,1-.23,2.83Zm8.46-4.91c0-1.75-.76-4.68-4-4.68-3.07,0-4.3,2.79-4.49,4.68Z"/><path class="cls-1" d="M388.36,248.77l3.12,10.73c.57,1.94.95,3.78,1.32,5.63H393c.37-1.89.75-3.64,1.27-5.63l3-10.73h7.56l-8.6,23.12H389l-8.42-23.12Z"/><path class="cls-1" d="M411.62,245.94a3.6,3.6,0,1,1,3.87-3.6,3.55,3.55,0,0,1-3.87,3.6Zm-3.55,25.95V248.77h7.19v23.12Z"/><path class="cls-1" d="M421,265.6a14.14,14.14,0,0,0,6.2,1.7c2.17,0,3.07-.71,3.07-1.89s-.71-1.79-3.36-2.65c-4.82-1.6-6.66-4.2-6.61-6.9,0-4.35,3.68-7.61,9.4-7.61a15.19,15.19,0,0,1,6.48,1.37l-1.23,4.92a12.26,12.26,0,0,0-5-1.28c-1.75,0-2.74.71-2.74,1.85s.9,1.7,3.73,2.64c4.4,1.52,6.19,3.74,6.24,7.09,0,4.35-3.35,7.52-10,7.52a16.4,16.4,0,0,1-7.47-1.65Z"/><path class="cls-1" d="M449.57,242.48v6.29h5.15v5.3h-5.15v8.36c0,2.79.71,4.07,2.84,4.07a9,9,0,0,0,2.13-.19l0,5.44a15.15,15.15,0,0,1-4.63.61,7.7,7.7,0,0,1-5.44-2c-1.32-1.38-2-3.6-2-6.86v-9.45h-3.07v-5.3h3.07v-4.35Z"/><path class="cls-1" d="M478.12,266.31a30.33,30.33,0,0,0,.38,5.58H472l-.42-2.32h-.14a8.33,8.33,0,0,1-6.62,2.84,7.09,7.09,0,0,1-7.47-7.09c0-6,5.39-8.84,13.57-8.84v-.29c0-1.23-.67-3-4.21-3a13.5,13.5,0,0,0-6.38,1.71L459,250.33a19,19,0,0,1,9-2.08c7.7,0,10.11,4.54,10.11,10ZM471.17,261c-3.78,0-6.71.9-6.71,3.64a2.58,2.58,0,0,0,2.84,2.74A4,4,0,0,0,471,264.7a4.88,4.88,0,0,0,.14-1.23Z"/><path class="cls-1" d="M515.8,238.28V265c0,2.6.09,5.34.18,6.9H509.6l-.28-3.36h-.14a8.09,8.09,0,0,1-7.24,3.88c-5.48,0-9.88-4.68-9.88-11.87,0-7.75,4.83-12.29,10.36-12.29,2.88,0,5.06,1,6.1,2.6h.09V238.28Zm-7.19,20.32a6.56,6.56,0,0,0-.09-1.32,4.28,4.28,0,0,0-4.21-3.5c-3.31,0-5,2.93-5,6.57,0,3.88,1.94,6.34,4.92,6.34a4.27,4.27,0,0,0,4.21-3.45,8.94,8.94,0,0,0,.14-1.61Z"/><path class="cls-1" d="M527.09,262.62c.24,3,3.17,4.4,6.52,4.4a19.14,19.14,0,0,0,6.39-1l.94,4.86a21.72,21.72,0,0,1-8.37,1.47c-7.84,0-12.33-4.54-12.33-11.77,0-5.86,3.68-12.34,11.67-12.34,7.47,0,10.31,5.82,10.31,11.54a16.3,16.3,0,0,1-.24,2.83Zm8.46-4.91c0-1.75-.75-4.68-4-4.68-3.07,0-4.3,2.79-4.49,4.68Z"/><path class="cls-1" d="M575.26,258.42H563.53V266h13.1v5.91H556.35V240H576v5.91H563.53v6.61h11.73Z"/><path class="cls-1" d="M603.52,238.28V265c0,2.6.1,5.34.19,6.9h-6.38l-.28-3.36h-.14a8.09,8.09,0,0,1-7.24,3.88c-5.48,0-9.88-4.68-9.88-11.87,0-7.75,4.83-12.29,10.36-12.29,2.88,0,5.05,1,6.09,2.6h.1V238.28Zm-7.18,20.32a5.92,5.92,0,0,0-.1-1.32,4.26,4.26,0,0,0-4.2-3.5c-3.31,0-5,2.93-5,6.57,0,3.88,1.94,6.34,4.92,6.34a4.27,4.27,0,0,0,4.21-3.45,8.94,8.94,0,0,0,.14-1.61Z"/><path class="cls-1" d="M631.08,264.47c0,3,.1,5.48.19,7.42H625l-.33-3.26h-.14a8.26,8.26,0,0,1-7.23,3.78c-4.73,0-8.14-2.93-8.14-10.07V248.77h7.19V261.2c0,3.36,1.09,5.39,3.64,5.39a3.8,3.8,0,0,0,3.59-2.5,3.84,3.84,0,0,0,.29-1.56V248.77h7.18Z"/><path class="cls-1" d="M654.2,271.27a16.35,16.35,0,0,1-6.43,1.09c-7.47,0-12.25-4.58-12.25-11.82,0-6.71,4.64-12.24,13.24-12.24a16.57,16.57,0,0,1,5.48.9l-1.13,5.34a9.81,9.81,0,0,0-4-.71c-3.78,0-6.24,2.69-6.19,6.43,0,4.25,2.83,6.47,6.33,6.47a10.16,10.16,0,0,0,4.11-.75Z"/><path class="cls-1" d="M677.59,266.31a30.33,30.33,0,0,0,.38,5.58h-6.48l-.42-2.32h-.14a8.33,8.33,0,0,1-6.62,2.84,7.09,7.09,0,0,1-7.47-7.09c0-6,5.39-8.84,13.57-8.84v-.29c0-1.23-.66-3-4.21-3a13.5,13.5,0,0,0-6.38,1.71l-1.33-4.59a19,19,0,0,1,9-2.08c7.7,0,10.11,4.54,10.11,10Zm-7-5.34c-3.78,0-6.71.9-6.71,3.64a2.58,2.58,0,0,0,2.84,2.74,4,4,0,0,0,3.73-2.65,4.88,4.88,0,0,0,.14-1.23Z"/><path class="cls-1" d="M700.66,271.27a14.13,14.13,0,0,1-5.3,1.09l-.89,1.61c1.79.42,3.45,1.6,3.45,3.83,0,3.31-2.93,4.39-5.67,4.39a8.42,8.42,0,0,1-4-.9l.9-2.93a6.26,6.26,0,0,0,2.65.67c.94,0,1.7-.33,1.7-1.23s-1.09-1.47-3.73-1.75l1.89-3.93c-6-.89-9.69-5.24-9.69-11.58,0-6.71,4.63-12.24,13.23-12.24a16.67,16.67,0,0,1,5.49.9l-1.14,5.34a9.81,9.81,0,0,0-4-.71c-3.78,0-6.24,2.69-6.19,6.43,0,4.25,2.84,6.47,6.29,6.47a10.28,10.28,0,0,0,4.16-.75Z"/><path class="cls-1" d="M724.06,266.31a30.46,30.46,0,0,0,.37,5.58H718l-.43-2.32h-.14a8.3,8.3,0,0,1-6.62,2.84,7.09,7.09,0,0,1-7.47-7.09c0-6,5.39-8.84,13.57-8.84v-.29c0-1.23-.66-3-4.21-3a13.5,13.5,0,0,0-6.38,1.71L705,250.33a19,19,0,0,1,9-2.08c7.71,0,10.12,4.54,10.12,10Zm-16.78-20.8c-.15-4,1.46-6.19,3.87-6.19a6.71,6.71,0,0,1,3.07.94,5.06,5.06,0,0,0,2,.9c.76,0,1.09-.42,1.23-2.08h3.31c.14,4.3-1.37,6-3.88,6a7.18,7.18,0,0,1-3.26-1c-.85-.47-1.18-.76-1.8-.76s-1,.71-1.13,2.13ZM717.11,261c-3.78,0-6.71.9-6.71,3.64a2.58,2.58,0,0,0,2.83,2.74A4,4,0,0,0,717,264.7a5.39,5.39,0,0,0,.14-1.23Z"/><path class="cls-1" d="M740.41,272.41c-6.76,0-12-4.45-12-11.91s4.92-12.25,12.39-12.25c7,0,11.77,4.87,11.77,11.87,0,8.41-6,12.29-12.15,12.29Zm.19-5.16c2.84,0,4.58-2.78,4.58-6.94,0-3.41-1.32-6.91-4.58-6.91s-4.73,3.5-4.73,7c0,3.93,1.66,6.9,4.68,6.9Z"/><path class="cls-1" d="M785.83,266.31a30.33,30.33,0,0,0,.38,5.58h-6.47l-.43-2.32h-.14a8.31,8.31,0,0,1-6.62,2.84,7.09,7.09,0,0,1-7.47-7.09c0-6,5.39-8.84,13.57-8.84v-.29c0-1.23-.66-3-4.21-3a13.5,13.5,0,0,0-6.38,1.71l-1.32-4.59a18.92,18.92,0,0,1,9-2.08c7.7,0,10.11,4.54,10.11,10ZM778.89,261c-3.79,0-6.72.9-6.72,3.64a2.58,2.58,0,0,0,2.84,2.74,4,4,0,0,0,3.73-2.65,4.88,4.88,0,0,0,.15-1.23Z"/><path class="cls-1" d="M801.34,240.5a58.37,58.37,0,0,1,9.69-.71c6.1,0,10.07,1.13,13.09,3.4,3.31,2.46,5.39,6.34,5.39,12,0,6.1-2.22,10.31-5.25,12.91-3.35,2.78-8.5,4.11-14.74,4.11a63,63,0,0,1-8.18-.47Zm7.18,25.95a13.77,13.77,0,0,0,2.51.14c6.57.05,10.87-3.54,10.87-11.15,0-6.62-3.88-10.12-10.11-10.12a15.58,15.58,0,0,0-3.27.28Z"/><path class="cls-1" d="M837.73,245.94a3.6,3.6,0,1,1,3.88-3.6,3.54,3.54,0,0,1-3.88,3.6Zm-3.54,25.95V248.77h7.19v23.12Z"/><path class="cls-1" d="M847.09,265.6a14.14,14.14,0,0,0,6.2,1.7c2.17,0,3.07-.71,3.07-1.89s-.71-1.79-3.36-2.65c-4.82-1.6-6.66-4.2-6.62-6.9,0-4.35,3.69-7.61,9.41-7.61a15.19,15.19,0,0,1,6.48,1.37L861,254.54a12.26,12.26,0,0,0-5-1.28c-1.75,0-2.74.71-2.74,1.85s.89,1.7,3.73,2.64c4.4,1.52,6.19,3.74,6.24,7.09,0,4.35-3.36,7.52-10,7.52a16.4,16.4,0,0,1-7.47-1.65Z"/><path class="cls-1" d="M875.69,242.48v6.29h5.15v5.3h-5.15v8.36c0,2.79.71,4.07,2.84,4.07a8.86,8.86,0,0,0,2.12-.19l.05,5.44a15.2,15.2,0,0,1-4.63.61,7.68,7.68,0,0,1-5.44-2c-1.32-1.38-2-3.6-2-6.86v-9.45h-3.08v-5.3h3.08v-4.35Z"/><path class="cls-1" d="M904.24,266.31a29.47,29.47,0,0,0,.38,5.58h-6.48l-.42-2.32h-.14a8.33,8.33,0,0,1-6.62,2.84,7.09,7.09,0,0,1-7.47-7.09c0-6,5.39-8.84,13.56-8.84v-.29c0-1.23-.66-3-4.2-3a13.46,13.46,0,0,0-6.38,1.71l-1.33-4.59a19,19,0,0,1,9-2.08c7.71,0,10.12,4.54,10.12,10Zm-7.37-27.61,4.68,7.19h-4.68l-2.37-4.11h-.09L892,245.89h-4.68L892,238.7Zm.42,22.27c-3.78,0-6.71.9-6.71,3.64a2.58,2.58,0,0,0,2.84,2.74,4,4,0,0,0,3.73-2.65,5.39,5.39,0,0,0,.14-1.23Z"/><path class="cls-1" d="M910,256.15c0-2.89-.1-5.3-.19-7.38H916l.33,3.22h.14a8.29,8.29,0,0,1,7.14-3.74c4.73,0,8.27,3.17,8.27,10v13.66h-7.18V259.08c0-3-1-5-3.64-5a4,4,0,0,0-3.69,2.69,5.17,5.17,0,0,0-.24,1.8v13.33H910Z"/><path class="cls-1" d="M955,271.27a16.35,16.35,0,0,1-6.43,1.09c-7.47,0-12.25-4.58-12.25-11.82,0-6.71,4.64-12.24,13.24-12.24a16.57,16.57,0,0,1,5.48.9l-1.13,5.34a9.81,9.81,0,0,0-4-.71c-3.78,0-6.24,2.69-6.19,6.43,0,4.25,2.83,6.47,6.33,6.47a10.21,10.21,0,0,0,4.12-.75Z"/><path class="cls-1" d="M962.52,245.94a3.86,3.86,0,1,1,.05,0ZM959,271.89V248.77h7.18v23.12Z"/><path class="cls-1" d="M991.17,266.31a30.46,30.46,0,0,0,.37,5.58h-6.47l-.43-2.32h-.14a8.3,8.3,0,0,1-6.62,2.84,7.09,7.09,0,0,1-7.47-7.09c0-6,5.39-8.84,13.57-8.84v-.29c0-1.23-.66-3-4.21-3a13.5,13.5,0,0,0-6.38,1.71l-1.32-4.59a19,19,0,0,1,9-2.08c7.7,0,10.12,4.54,10.12,10ZM984.22,261c-3.78,0-6.72.9-6.72,3.64a2.58,2.58,0,0,0,2.84,2.74,4,4,0,0,0,3.74-2.65,5.39,5.39,0,0,0,.14-1.23Z"/></svg>